<svg width="24" height="24" viewBox="0 0 24 24" fill="none" xmlns="http://www.w3.org/2000/svg">
<path d="M10 2H3C2.44772 2 2 2.44772 2 3V10C2 10.5523 2.44772 11 3 11H10C10.5523 11 11 10.5523 11 10V3C11 2.44772 10.5523 2 10 2Z" fill="url(#paint0_linear_1_5992)"/>
<path d="M10 13H3C2.44772 13 2 13.4477 2 14V21C2 21.5523 2.44772 22 3 22H10C10.5523 22 11 21.5523 11 21V14C11 13.4477 10.5523 13 10 13Z" fill="url(#paint1_linear_1_5992)" fill-opacity="0.15"/>
<path d="M21 2H14C13.4477 2 13 2.44772 13 3V10C13 10.5523 13.4477 11 14 11H21C21.5523 11 22 10.5523 22 10V3C22 2.44772 21.5523 2 21 2Z" fill="url(#paint2_linear_1_5992)" fill-opacity="0.15"/>
<path d="M21 13H14C13.4477 13 13 13.4477 13 14V21C13 21.5523 13.4477 22 14 22H21C21.5523 22 22 21.5523 22 21V14C22 13.4477 21.5523 13 21 13Z" fill="url(#paint3_linear_1_5992)" fill-opacity="0.15"/>
<defs>
<linearGradient id="paint0_linear_1_5992" x1="2" y1="6.5" x2="11" y2="6.5" gradientUnits="userSpaceOnUse">
<stop stop-color="#89F7FE"/>
<stop offset="1" stop-color="#66A6FF"/>
</linearGradient>
<linearGradient id="paint1_linear_1_5992" x1="2" y1="17.5" x2="11" y2="17.5" gradientUnits="userSpaceOnUse">
<stop stop-color="#89F7FE"/>
<stop offset="1" stop-color="#66A6FF"/>
</linearGradient>
<linearGradient id="paint2_linear_1_5992" x1="13" y1="6.5" x2="22" y2="6.5" gradientUnits="userSpaceOnUse">
<stop stop-color="#89F7FE"/>
<stop offset="1" stop-color="#66A6FF"/>
</linearGradient>
<linearGradient id="paint3_linear_1_5992" x1="13" y1="17.5" x2="22" y2="17.5" gradientUnits="userSpaceOnUse">
<stop stop-color="#89F7FE"/>
<stop offset="1" stop-color="#66A6FF"/>
</linearGradient>
</defs>
</svg>
