<svg width="24" height="24" viewBox="0 0 24 24" fill="none" xmlns="http://www.w3.org/2000/svg">
<path d="M6.99991 19.0003C6.86858 19.0005 6.7385 18.9747 6.61717 18.9244C6.49584 18.8741 6.38564 18.8003 6.29291 18.7073L2.29291 14.7073C2.15306 14.5675 2.05782 14.3893 2.01922 14.1954C1.98063 14.0014 2.00042 13.8003 2.0761 13.6176C2.15178 13.4349 2.27994 13.2787 2.44438 13.1688C2.60882 13.059 2.80214 13.0003 2.99991 13.0003H16.9999C17.2651 13.0003 17.5195 13.1057 17.707 13.2932C17.8946 13.4808 17.9999 13.7351 17.9999 14.0003C17.9999 14.2655 17.8946 14.5199 17.707 14.7074C17.5195 14.895 17.2651 15.0003 16.9999 15.0003H5.41397L7.70697 17.2933C7.84679 17.4332 7.94199 17.6113 7.98056 17.8053C8.01913 17.9993 7.99932 18.2003 7.92364 18.383C7.84796 18.5657 7.71981 18.7219 7.5554 18.8317C7.39098 18.9416 7.19767 19.0003 6.99991 19.0003ZM20.9999 11.0003H6.99991C6.7347 11.0003 6.48034 10.895 6.29281 10.7074C6.10527 10.5199 5.99991 10.2655 5.99991 10.0003C5.99991 9.73511 6.10527 9.48075 6.29281 9.29322C6.48034 9.10568 6.7347 9.00032 6.99991 9.00032H18.5859L16.2929 6.70732C16.1082 6.51923 16.0052 6.26581 16.0064 6.0022C16.0076 5.73858 16.1129 5.4861 16.2993 5.2997C16.4857 5.11329 16.7382 5.00804 17.0018 5.00685C17.2654 5.00565 17.5188 5.10861 17.7069 5.29332L21.7069 9.29332C21.8468 9.43316 21.942 9.61132 21.9806 9.80529C22.0192 9.99926 21.9994 10.2003 21.9237 10.383C21.848 10.5658 21.7199 10.7219 21.5555 10.8318C21.391 10.9417 21.1977 11.0003 20.9999 11.0003Z" fill="url(#paint0_linear_1_5999)" fill-opacity="0.15"/>
<path d="M20.9999 10.9993H6.99991C6.7347 10.9993 6.48034 10.894 6.29281 10.7065C6.10527 10.5189 5.99991 10.2646 5.99991 9.99935C5.99991 9.73413 6.10527 9.47978 6.29281 9.29224C6.48034 9.1047 6.7347 8.99935 6.99991 8.99935H18.5859L16.2929 6.70635C16.1082 6.51826 16.0052 6.26484 16.0064 6.00122C16.0076 5.73761 16.1129 5.48513 16.2993 5.29872C16.4857 5.11231 16.7382 5.00706 17.0018 5.00587C17.2654 5.00468 17.5188 5.10764 17.7069 5.29235L21.7069 9.29235C21.8468 9.43218 21.942 9.61035 21.9806 9.80432C22.0192 9.99828 21.9994 10.1993 21.9237 10.3821C21.848 10.5648 21.7199 10.7209 21.5555 10.8308C21.391 10.9407 21.1977 10.9993 20.9999 10.9993Z" fill="url(#paint1_linear_1_5999)"/>
<defs>
<linearGradient id="paint0_linear_1_5999" x1="2" y1="12.0036" x2="21.9998" y2="12.0036" gradientUnits="userSpaceOnUse">
<stop stop-color="#89F7FE"/>
<stop offset="1" stop-color="#66A6FF"/>
</linearGradient>
<linearGradient id="paint1_linear_1_5999" x1="2" y1="12.0026" x2="21.9998" y2="12.0026" gradientUnits="userSpaceOnUse">
<stop stop-color="#89F7FE"/>
<stop offset="1" stop-color="#66A6FF"/>
</linearGradient>
</defs>
</svg>
