<svg width="24" height="24" viewBox="0 0 24 24" fill="none" xmlns="http://www.w3.org/2000/svg">
<path d="M6.375 17.625H4.875C4.66789 17.625 4.5 17.7929 4.5 18V22.875C4.5 23.0821 4.66789 23.25 4.875 23.25H6.375C6.58211 23.25 6.75 23.0821 6.75 22.875V18C6.75 17.7929 6.58211 17.625 6.375 17.625Z" fill="url(#paint0_linear_1_6017)" fill-opacity="0.15"/>
<path d="M12.75 16.875H11.25C11.0429 16.875 10.875 17.0429 10.875 17.25V22.875C10.875 23.0821 11.0429 23.25 11.25 23.25H12.75C12.9571 23.25 13.125 23.0821 13.125 22.875V17.25C13.125 17.0429 12.9571 16.875 12.75 16.875Z" fill="url(#paint1_linear_1_6017)" fill-opacity="0.15"/>
<path d="M19.125 19.5H17.625C17.4179 19.5 17.25 19.6679 17.25 19.875V22.875C17.25 23.0821 17.4179 23.25 17.625 23.25H19.125C19.3321 23.25 19.5 23.0821 19.5 22.875V19.875C19.5 19.6679 19.3321 19.5 19.125 19.5Z" fill="url(#paint2_linear_1_6017)" fill-opacity="0.15"/>
<path d="M5.625 4.5C3.09776 4.5 1.5 12.2988 1.5 14.25C1.5 15.344 1.9346 16.3932 2.70818 17.1668C3.48177 17.9404 4.53098 18.375 5.625 18.375C6.71902 18.375 7.76823 17.9404 8.54182 17.1668C9.3154 16.3932 9.75 15.344 9.75 14.25C9.75 12.2988 8.15224 4.5 5.625 4.5Z" fill="#4D6375"/>
<path d="M12 0.75C9.07069 0.75 7.125 10.4288 7.125 12.75C7.125 14.0429 7.63861 15.2829 8.55285 16.1971C9.46709 17.1114 10.7071 17.625 12 17.625C13.2929 17.625 14.5329 17.1114 15.4471 16.1971C16.3614 15.2829 16.875 14.0429 16.875 12.75C16.875 10.4288 14.9293 0.75 12 0.75Z" fill="#7EB457"/>
<path d="M12 0.75C9.07069 0.75 7.125 10.4288 7.125 12.75C7.125 14.0429 7.63861 15.2829 8.55285 16.1971C9.46709 17.1114 10.7071 17.625 12 17.625C13.2929 17.625 14.5329 17.1114 15.4471 16.1971C16.3614 15.2829 16.875 14.0429 16.875 12.75C16.875 10.4288 14.9293 0.75 12 0.75Z" fill="url(#paint3_linear_1_6017)"/>
<path d="M18.375 6.375C15.8478 6.375 14.25 14.1738 14.25 16.125C14.25 17.219 14.6846 18.2682 15.4582 19.0418C16.2318 19.8154 17.281 20.25 18.375 20.25C19.469 20.25 20.5182 19.8154 21.2918 19.0418C22.0654 18.2682 22.5 17.219 22.5 16.125C22.5 14.1738 20.9022 6.375 18.375 6.375Z" fill="#4D6375"/>
<path d="M22.875 22.5H1.125C1.02554 22.5 0.930161 22.5395 0.859835 22.6098C0.789509 22.6802 0.75 22.7755 0.75 22.875C0.75 22.9745 0.789509 23.0698 0.859835 23.1402C0.930161 23.2105 1.02554 23.25 1.125 23.25H22.875C22.9745 23.25 23.0698 23.2105 23.1402 23.1402C23.2105 23.0698 23.25 22.9745 23.25 22.875C23.25 22.7755 23.2105 22.6802 23.1402 22.6098C23.0698 22.5395 22.9745 22.5 22.875 22.5Z" fill="#4D5E78"/>
<defs>
<linearGradient id="paint0_linear_1_6017" x1="4.5" y1="20.4375" x2="6.75" y2="20.4375" gradientUnits="userSpaceOnUse">
<stop stop-color="#89F7FE"/>
<stop offset="1" stop-color="#66A6FF"/>
</linearGradient>
<linearGradient id="paint1_linear_1_6017" x1="10.875" y1="20.0625" x2="13.125" y2="20.0625" gradientUnits="userSpaceOnUse">
<stop stop-color="#89F7FE"/>
<stop offset="1" stop-color="#66A6FF"/>
</linearGradient>
<linearGradient id="paint2_linear_1_6017" x1="17.25" y1="21.375" x2="19.5" y2="21.375" gradientUnits="userSpaceOnUse">
<stop stop-color="#89F7FE"/>
<stop offset="1" stop-color="#66A6FF"/>
</linearGradient>
<linearGradient id="paint3_linear_1_6017" x1="7.125" y1="9.1875" x2="16.875" y2="9.1875" gradientUnits="userSpaceOnUse">
<stop stop-color="#89F7FE"/>
<stop offset="1" stop-color="#66A6FF"/>
</linearGradient>
</defs>
</svg>
