<svg width="18" height="17" viewBox="0 0 18 17" fill="none" xmlns="http://www.w3.org/2000/svg">
<path d="M10.0781 5.93222H8.42188V4.27692H10.0781V5.93222ZM10.0781 12.5534H8.42188V7.58753H10.0781V12.5534ZM9.25 0.138672C8.16249 0.138672 7.08563 0.35275 6.0809 0.768683C5.07618 1.18462 4.16326 1.79426 3.39427 2.5628C1.84124 4.11495 0.96875 6.22011 0.96875 8.41518C0.96875 10.6102 1.84124 12.7154 3.39427 14.2675C4.16326 15.0361 5.07618 15.6457 6.0809 16.0617C7.08563 16.4776 8.16249 16.6917 9.25 16.6917C11.4463 16.6917 13.5527 15.8197 15.1057 14.2675C16.6588 12.7154 17.5312 10.6102 17.5312 8.41518C17.5312 7.32829 17.317 6.25205 16.9009 5.24789C16.4847 4.24374 15.8747 3.33135 15.1057 2.5628C14.3367 1.79426 13.4238 1.18462 12.4191 0.768683C11.4144 0.35275 10.3375 0.138672 9.25 0.138672Z" fill="white" fill-opacity="0.67"/>
</svg>
