<svg width="24" height="24" viewBox="0 0 24 24" fill="none" xmlns="http://www.w3.org/2000/svg">
<path d="M3.58453 9.2791C3.51891 9.37988 3.45563 9.48301 3.39703 9.58801C3.27959 9.7946 3.17411 10.0078 3.08109 10.2264C3.0542 10.29 3.00917 10.3442 2.95165 10.3823C2.89413 10.4204 2.82665 10.4407 2.75766 10.4407H0.421875C0.328635 10.4407 0.239214 10.4036 0.173283 10.3377C0.107352 10.2718 0.0703125 10.1823 0.0703125 10.0891V9.08691C0.0703125 8.99367 0.107352 8.90425 0.173283 8.83832C0.239214 8.77239 0.328635 8.73535 0.421875 8.73535H3.29062C3.35393 8.73544 3.41604 8.75261 3.47039 8.78507C3.52474 8.81753 3.56932 8.86405 3.59943 8.91975C3.62953 8.97544 3.64403 9.03822 3.64141 9.10147C3.63879 9.16472 3.61914 9.22609 3.58453 9.2791ZM12.5489 9.2791C12.4833 9.37988 12.42 9.48301 12.3614 9.58801C12.2436 9.7944 12.1381 10.0076 12.0455 10.2264C12.0186 10.29 11.9735 10.3442 11.916 10.3823C11.8585 10.4204 11.791 10.4407 11.722 10.4407H4.96875C4.99922 10.3774 5.03109 10.3146 5.0625 10.2532C5.18254 10.0231 5.31768 9.80118 5.46703 9.58894C5.52953 9.49801 5.59547 9.4091 5.66484 9.32223C5.67 9.3166 5.67469 9.31098 5.67938 9.30488L6.12562 8.73629H12.2522C12.3155 8.73629 12.3777 8.75341 12.4321 8.78583C12.4865 8.81825 12.5312 8.86477 12.5613 8.92048C12.5915 8.97618 12.606 9.039 12.6034 9.10229C12.6008 9.16558 12.5812 9.227 12.5466 9.28004L12.5489 9.2791Z" fill="url(#paint0_linear_1_6004)" fill-opacity="0.15"/>
<path d="M6.1284 8.73477L5.68215 9.30336C5.67746 9.30945 5.67278 9.31508 5.66762 9.3207C5.43846 9.61171 5.23682 9.92336 5.06528 10.2516C5.03246 10.314 5.00059 10.3768 4.97153 10.4391H4.75356C4.6929 10.4393 4.63323 10.4238 4.58036 10.3941C4.52749 10.3643 4.48323 10.3214 4.45188 10.2695C4.42054 10.2176 4.40318 10.1584 4.4015 10.0978C4.39982 10.0371 4.41388 9.9771 4.44231 9.92352C4.63664 9.55165 4.86545 9.19885 5.12574 8.86977C5.13418 8.85898 5.14356 8.84914 5.15293 8.8393L5.15715 8.83508C5.22309 8.7693 5.31245 8.73238 5.40559 8.73242L6.1284 8.73477ZM23.9301 9.08633V10.0885C23.9301 10.1818 23.8931 10.2712 23.8271 10.3371C23.7612 10.403 23.6718 10.4401 23.5786 10.4401H13.9345C13.965 10.3768 13.9968 10.314 14.0282 10.2526C14.1483 10.0225 14.2834 9.80059 14.4328 9.58836C14.4956 9.49742 14.5617 9.40836 14.6301 9.32164C14.6353 9.31602 14.6404 9.31039 14.6451 9.3043L15.0942 8.73477H23.5786C23.6718 8.73477 23.7612 8.7718 23.8271 8.83774C23.8931 8.90367 23.9301 8.99309 23.9301 9.08633Z" fill="url(#paint1_linear_1_6004)" fill-opacity="0.15"/>
<path d="M15.0933 8.73477L14.647 9.30336C14.6424 9.30945 14.6372 9.31508 14.632 9.3207C14.403 9.61172 14.2015 9.92337 14.0302 10.2516C13.9974 10.314 13.9655 10.3768 13.9364 10.4391H13.7198C13.6592 10.4394 13.5994 10.4239 13.5465 10.3942C13.4936 10.3645 13.4492 10.3216 13.4178 10.2697C13.3864 10.2177 13.369 10.1586 13.3673 10.0979C13.3656 10.0372 13.3797 9.97713 13.4081 9.92352C13.6028 9.55174 13.8318 9.19896 14.092 8.86977C14.1005 8.85906 14.1095 8.84889 14.1192 8.8393L14.123 8.83508C14.1891 8.76936 14.2786 8.73246 14.3719 8.73242L15.0933 8.73477Z" fill="#607D8B"/>
<path d="M0.0703125 9.58789H3.39609C3.27866 9.79449 3.17317 10.0076 3.08016 10.2263C3.05326 10.2899 3.00824 10.3441 2.95071 10.3822C2.89319 10.4203 2.82571 10.4406 2.75672 10.4405H0.421875C0.328635 10.4405 0.239214 10.4035 0.173283 10.3376C0.107352 10.2716 0.0703125 10.1822 0.0703125 10.089V9.58789ZM5.46938 9.58789H12.36C12.2422 9.79429 12.1367 10.0075 12.0441 10.2263C12.0172 10.2899 11.9721 10.3441 11.9146 10.3822C11.8571 10.4203 11.7896 10.4406 11.7206 10.4405H4.96875C4.99922 10.3773 5.03109 10.3145 5.0625 10.253C5.18326 10.0226 5.31918 9.80036 5.46938 9.58789ZM23.9297 9.58789V10.089C23.9297 10.1822 23.8926 10.2716 23.8267 10.3376C23.7608 10.4035 23.6714 10.4405 23.5781 10.4405H13.9341C13.9645 10.3773 13.9964 10.3145 14.0278 10.253C14.1479 10.023 14.283 9.80106 14.4323 9.58883L23.9297 9.58789Z" fill="url(#paint2_linear_1_6004)" fill-opacity="0.15"/>
<path d="M10.8785 4.96324V8.73527H8.44099V5.78215L6.12537 8.73527L5.67912 9.30387C5.67443 9.30996 5.66974 9.31558 5.66458 9.32121C5.43543 9.61221 5.23378 9.92386 5.06224 10.2521C5.02943 10.3145 4.99755 10.3773 4.96849 10.4396C4.5585 11.2873 4.34553 12.2168 4.34552 13.1584V20.5693C4.3454 20.7229 4.28432 20.8702 4.17569 20.9789C4.06706 21.0875 3.91977 21.1486 3.76615 21.1487H2.47099C2.31737 21.1486 2.17008 21.0875 2.06145 20.9789C1.95282 20.8702 1.89174 20.7229 1.89162 20.5693V12.6437C1.88963 11.7195 2.07359 10.8043 2.43255 9.95262C2.69135 9.3551 3.02734 8.79407 3.43193 8.28387C3.79662 7.83574 4.14537 7.39933 4.51521 6.93762C5.38896 5.8459 6.29271 4.71668 7.37177 3.46887C7.5415 3.2745 7.75089 3.11876 7.98586 3.01211C8.22083 2.90546 8.47592 2.85038 8.73396 2.85059H8.76536C9.32564 2.85083 9.86291 3.07348 10.2591 3.46961C10.6553 3.86575 10.8781 4.40296 10.8785 4.96324Z" fill="#CFD8DC"/>
<path d="M10.8785 4.96324V8.73527H8.44099V5.78215L6.12537 8.73527L5.67912 9.30387C5.67443 9.30996 5.66974 9.31558 5.66458 9.32121C5.43543 9.61221 5.23378 9.92386 5.06224 10.2521C5.02943 10.3145 4.99755 10.3773 4.96849 10.4396C4.5585 11.2873 4.34553 12.2168 4.34552 13.1584V20.5693C4.3454 20.7229 4.28432 20.8702 4.17569 20.9789C4.06706 21.0875 3.91977 21.1486 3.76615 21.1487H2.47099C2.31737 21.1486 2.17008 21.0875 2.06145 20.9789C1.95282 20.8702 1.89174 20.7229 1.89162 20.5693V12.6437C1.88963 11.7195 2.07359 10.8043 2.43255 9.95262C2.69135 9.3551 3.02734 8.79407 3.43193 8.28387C3.79662 7.83574 4.14537 7.39933 4.51521 6.93762C5.38896 5.8459 6.29271 4.71668 7.37177 3.46887C7.5415 3.2745 7.75089 3.11876 7.98586 3.01211C8.22083 2.90546 8.47592 2.85038 8.73396 2.85059H8.76536C9.32564 2.85083 9.86291 3.07348 10.2591 3.46961C10.6553 3.86575 10.8781 4.40296 10.8785 4.96324Z" fill="url(#paint3_linear_1_6004)"/>
<path d="M11.5588 14.8359V16.5431C11.5588 16.6364 11.5217 16.7258 11.4558 16.7917C11.3898 16.8576 11.3004 16.8947 11.2072 16.8947H3.89047C3.44703 16.8947 3.16016 16.4217 3.16016 15.6895C3.16016 14.9573 3.44797 14.4844 3.89047 14.4844H11.2072C11.3004 14.4844 11.3898 14.5214 11.4558 14.5873C11.5217 14.6533 11.5588 14.7427 11.5588 14.8359Z" fill="url(#paint4_linear_1_6004)" fill-opacity="0.15"/>
<path d="M11.5588 15.6895V16.543C11.5588 16.6363 11.5217 16.7257 11.4558 16.7916C11.3898 16.8576 11.3004 16.8946 11.2072 16.8946H3.89047C3.44703 16.8946 3.16016 16.4216 3.16016 15.6895H11.5588Z" fill="url(#paint5_linear_1_6004)" fill-opacity="0.15"/>
<path d="M19.8424 4.9632V8.73524H17.4077V5.78211L15.0921 8.73524L14.6459 9.30383C14.6412 9.30992 14.636 9.31555 14.6309 9.32117C14.4019 9.61219 14.2004 9.92384 14.029 10.2521C13.9962 10.3145 13.9643 10.3773 13.9352 10.4396C13.5253 11.2873 13.3123 12.2167 13.3123 13.1584V20.5693C13.312 20.723 13.2508 20.8703 13.1421 20.9789C13.0334 21.0875 12.8861 21.1486 12.7324 21.1487H11.4373C11.2836 21.1486 11.1363 21.0875 11.0276 20.9789C10.9189 20.8703 10.8577 20.723 10.8574 20.5693V12.6437C10.8557 11.7195 11.0397 10.8043 11.3984 9.95258C11.6576 9.35531 11.9936 8.79434 12.3977 8.28383C12.7624 7.83524 13.1121 7.39883 13.482 6.93664C14.3557 5.84539 15.2595 4.71664 16.3381 3.46789C16.5077 3.27348 16.7171 3.1177 16.9521 3.01105C17.1871 2.90439 17.4422 2.84934 17.7002 2.84961H17.7326C18.2925 2.85073 18.829 3.07389 19.2246 3.47013C19.6201 3.86637 19.8423 4.40333 19.8424 4.9632Z" fill="#CFD8DC"/>
<path d="M19.8424 4.9632V8.73524H17.4077V5.78211L15.0921 8.73524L14.6459 9.30383C14.6412 9.30992 14.636 9.31555 14.6309 9.32117C14.4019 9.61219 14.2004 9.92384 14.029 10.2521C13.9962 10.3145 13.9643 10.3773 13.9352 10.4396C13.5253 11.2873 13.3123 12.2167 13.3123 13.1584V20.5693C13.312 20.723 13.2508 20.8703 13.1421 20.9789C13.0334 21.0875 12.8861 21.1486 12.7324 21.1487H11.4373C11.2836 21.1486 11.1363 21.0875 11.0276 20.9789C10.9189 20.8703 10.8577 20.723 10.8574 20.5693V12.6437C10.8557 11.7195 11.0397 10.8043 11.3984 9.95258C11.6576 9.35531 11.9936 8.79434 12.3977 8.28383C12.7624 7.83524 13.1121 7.39883 13.482 6.93664C14.3557 5.84539 15.2595 4.71664 16.3381 3.46789C16.5077 3.27348 16.7171 3.1177 16.9521 3.01105C17.1871 2.90439 17.4422 2.84934 17.7002 2.84961H17.7326C18.2925 2.85073 18.829 3.07389 19.2246 3.47013C19.6201 3.86637 19.8423 4.40333 19.8424 4.9632Z" fill="url(#paint6_linear_1_6004)"/>
<path d="M17.4082 5.78379L18.1076 4.90723V8.73551H17.4082V5.78379Z" fill="#67A9FE"/>
<path d="M8.44336 5.78379L9.14836 4.90723V8.73551H8.44336V5.78379Z" fill="#67A9FE"/>
<defs>
<linearGradient id="paint0_linear_1_6004" x1="0.0703125" y1="9.58801" x2="12.6037" y2="9.58801" gradientUnits="userSpaceOnUse">
<stop stop-color="#89F7FE"/>
<stop offset="1" stop-color="#66A6FF"/>
</linearGradient>
<linearGradient id="paint1_linear_1_6004" x1="4.40137" y1="9.58625" x2="23.9301" y2="9.58625" gradientUnits="userSpaceOnUse">
<stop stop-color="#89F7FE"/>
<stop offset="1" stop-color="#66A6FF"/>
</linearGradient>
<linearGradient id="paint2_linear_1_6004" x1="0.0703125" y1="10.0142" x2="23.9297" y2="10.0142" gradientUnits="userSpaceOnUse">
<stop stop-color="#89F7FE"/>
<stop offset="1" stop-color="#66A6FF"/>
</linearGradient>
<linearGradient id="paint3_linear_1_6004" x1="1.8916" y1="11.9996" x2="10.8785" y2="11.9996" gradientUnits="userSpaceOnUse">
<stop stop-color="#89F7FE"/>
<stop offset="1" stop-color="#66A6FF"/>
</linearGradient>
<linearGradient id="paint4_linear_1_6004" x1="3.16016" y1="15.6895" x2="11.5588" y2="15.6895" gradientUnits="userSpaceOnUse">
<stop stop-color="#89F7FE"/>
<stop offset="1" stop-color="#66A6FF"/>
</linearGradient>
<linearGradient id="paint5_linear_1_6004" x1="3.16016" y1="16.292" x2="11.5588" y2="16.292" gradientUnits="userSpaceOnUse">
<stop stop-color="#89F7FE"/>
<stop offset="1" stop-color="#66A6FF"/>
</linearGradient>
<linearGradient id="paint6_linear_1_6004" x1="10.8574" y1="11.9991" x2="19.8424" y2="11.9991" gradientUnits="userSpaceOnUse">
<stop stop-color="#89F7FE"/>
<stop offset="1" stop-color="#66A6FF"/>
</linearGradient>
</defs>
</svg>
