<svg
    width="42"
    height="41"
    viewBox="0 0 42 41"
    fill="none"
    xmlns="http://www.w3.org/2000/svg"
>
    <path
        fill-rule="evenodd"
        clip-rule="evenodd"
        d="M20.5505 41C31.9002 41 41.1009 31.8218 41.1009 20.5C41.1009 9.17816 31.9002 0 20.5505 0C9.20075 0 0 9.17816 0 20.5C0 31.8218 9.20075 41 20.5505 41ZM29.7744 25.9887C30.4749 24.4545 30.8252 22.6205 30.8252 20.4868C30.8252 17.242 29.969 14.7291 28.2564 12.9481C26.5698 11.1494 23.9881 10.25 20.5111 10.25C18.0461 10.25 16.0611 10.6556 14.5561 11.4668C13.0512 12.278 11.9614 13.4506 11.2867 14.9848C10.6121 16.5014 10.2748 18.3354 10.2748 20.4868C10.2748 23.6962 11.1181 26.2091 12.8047 28.0255C14.4913 29.8418 17.0601 30.75 20.5111 30.75C23.0021 30.75 25 30.3444 26.505 29.5332C28.0099 28.7044 29.0997 27.5229 29.7744 25.9887ZM17.3585 14.5881C18.0331 13.6005 19.0969 13.1068 20.55 13.1068C22.0031 13.1068 23.0539 13.6005 23.7026 14.5881C24.3773 15.558 24.7665 17.0128 24.8703 18.9526H16.2297C16.3335 17.0128 16.7098 15.558 17.3585 14.5881ZM23.7416 26.4119C23.0669 27.3995 21.9901 27.8932 20.5111 27.8932C19.0061 27.8932 17.9163 27.3906 17.2417 26.3855C16.593 25.3627 16.2427 23.8638 16.1908 21.8887H24.8703C24.8184 23.899 24.4421 25.4068 23.7416 26.4119Z"
        fill="white"
    />
</svg>