<svg width="24" height="24" viewBox="0 0 24 24" fill="none" xmlns="http://www.w3.org/2000/svg">
<path d="M10.4661 10.3886C11.4103 9.87048 12.5897 9.87048 13.5339 10.3886L20.5175 14.2207C21.1608 14.5737 21.1608 15.4263 20.5175 15.7793L13.5339 19.6114C12.5897 20.1295 11.4103 20.1295 10.4661 19.6114L3.48248 15.7793C2.83917 15.4263 2.83917 14.5737 3.48248 14.2207L10.4661 10.3886Z" fill="url(#paint0_linear_1_6027)"/>
<g filter="url(#filter0_bi_1_6027)">
<path d="M10.4661 7.38856C11.4103 6.87048 12.5897 6.87048 13.5339 7.38855L20.5175 11.2207C21.1608 11.5737 21.1608 12.4263 20.5175 12.7793L13.5339 16.6114C12.5897 17.1295 11.4103 17.1295 10.4661 16.6114L3.48248 12.7793C2.83917 12.4263 2.83917 11.5737 3.48248 11.2207L10.4661 7.38856Z" fill="url(#paint1_linear_1_6027)" fill-opacity="0.3"/>
</g>
<g filter="url(#filter1_bi_1_6027)">
<path d="M10.4661 4.38856C11.4103 3.87048 12.5897 3.87048 13.5339 4.38855L20.5175 8.22066C21.1608 8.57367 21.1608 9.42633 20.5175 9.77934L13.5339 13.6114C12.5897 14.1295 11.4103 14.1295 10.4661 13.6114L3.48248 9.77934C2.83917 9.42633 2.83917 8.57367 3.48248 8.22066L10.4661 4.38856Z" fill="url(#paint2_linear_1_6027)" fill-opacity="0.15"/>
</g>
<defs>
<filter id="filter0_bi_1_6027" x="0" y="4" width="24" height="16" filterUnits="userSpaceOnUse" color-interpolation-filters="sRGB">
<feFlood flood-opacity="0" result="BackgroundImageFix"/>
<feGaussianBlur in="BackgroundImage" stdDeviation="1.5"/>
<feComposite in2="SourceAlpha" operator="in" result="effect1_backgroundBlur_1_6027"/>
<feBlend mode="normal" in="SourceGraphic" in2="effect1_backgroundBlur_1_6027" result="shape"/>
<feColorMatrix in="SourceAlpha" type="matrix" values="0 0 0 0 0 0 0 0 0 0 0 0 0 0 0 0 0 0 127 0" result="hardAlpha"/>
<feOffset dy="0.5"/>
<feGaussianBlur stdDeviation="1"/>
<feComposite in2="hardAlpha" operator="arithmetic" k2="-1" k3="1"/>
<feColorMatrix type="matrix" values="0 0 0 0 1 0 0 0 0 1 0 0 0 0 1 0 0 0 0.15 0"/>
<feBlend mode="normal" in2="shape" result="effect2_innerShadow_1_6027"/>
</filter>
<filter id="filter1_bi_1_6027" x="0" y="1" width="24" height="16" filterUnits="userSpaceOnUse" color-interpolation-filters="sRGB">
<feFlood flood-opacity="0" result="BackgroundImageFix"/>
<feGaussianBlur in="BackgroundImage" stdDeviation="1.5"/>
<feComposite in2="SourceAlpha" operator="in" result="effect1_backgroundBlur_1_6027"/>
<feBlend mode="normal" in="SourceGraphic" in2="effect1_backgroundBlur_1_6027" result="shape"/>
<feColorMatrix in="SourceAlpha" type="matrix" values="0 0 0 0 0 0 0 0 0 0 0 0 0 0 0 0 0 0 127 0" result="hardAlpha"/>
<feOffset dy="0.5"/>
<feGaussianBlur stdDeviation="1"/>
<feComposite in2="hardAlpha" operator="arithmetic" k2="-1" k3="1"/>
<feColorMatrix type="matrix" values="0 0 0 0 1 0 0 0 0 1 0 0 0 0 1 0 0 0 0.15 0"/>
<feBlend mode="normal" in2="shape" result="effect2_innerShadow_1_6027"/>
</filter>
<linearGradient id="paint0_linear_1_6027" x1="3" y1="15" x2="21" y2="15" gradientUnits="userSpaceOnUse">
<stop stop-color="#89F7FE"/>
<stop offset="1" stop-color="#66A6FF"/>
</linearGradient>
<linearGradient id="paint1_linear_1_6027" x1="3" y1="12" x2="21" y2="12" gradientUnits="userSpaceOnUse">
<stop stop-color="#89F7FE"/>
<stop offset="1" stop-color="#66A6FF"/>
</linearGradient>
<linearGradient id="paint2_linear_1_6027" x1="3" y1="9" x2="21" y2="9" gradientUnits="userSpaceOnUse">
<stop stop-color="#89F7FE"/>
<stop offset="1" stop-color="#66A6FF"/>
</linearGradient>
</defs>
</svg>
