<svg width="17" height="18" viewBox="0 0 17 18" fill="none" xmlns="http://www.w3.org/2000/svg">
<path d="M6.55617 0.94043C2.98578 0.94043 0.0761719 3.85004 0.0761719 7.42043C0.0761719 10.9908 2.98578 13.9004 6.55617 13.9004C7.86001 13.9004 9.0734 13.5094 10.0915 12.8429L14.6126 17.364L16.1398 15.8368L11.677 11.3741C12.5255 10.2782 13.0362 8.90893 13.0362 7.42043C13.0362 3.85004 10.1266 0.94043 6.55617 0.94043ZM6.55617 2.38043C9.34842 2.38043 11.5962 4.62818 11.5962 7.42043C11.5962 10.2127 9.34842 12.4604 6.55617 12.4604C3.76393 12.4604 1.51617 10.2127 1.51617 7.42043C1.51617 4.62818 3.76393 2.38043 6.55617 2.38043Z" fill="#909090"/>
</svg>
