<svg width="16" height="16" viewBox="0 0 16 16" fill="none" xmlns="http://www.w3.org/2000/svg">
<path d="M7.4975 13.1609C7.47172 13.1345 7.3615 13.0349 7.27083 12.9422C6.70061 12.3985 5.76727 10.9801 5.48238 10.2377C5.43661 10.1249 5.33972 9.83988 5.3335 9.68758C5.3335 9.54165 5.3655 9.40253 5.43038 9.26978C5.52105 9.1043 5.66372 8.97155 5.83216 8.89881C5.94905 8.85199 6.29883 8.77925 6.30505 8.77925C6.68772 8.70651 7.3095 8.6665 7.99661 8.6665C8.65127 8.6665 9.24772 8.70651 9.63616 8.76607C9.64239 8.77288 10.0771 8.84562 10.2259 8.92518C10.4979 9.07111 10.6668 9.35616 10.6668 9.66121V9.68758C10.6602 9.88625 10.4913 10.304 10.4851 10.304C10.1997 11.0064 9.31216 12.3921 8.72238 12.949C8.72238 12.949 8.57083 13.1059 8.47616 13.1741C8.34016 13.2804 8.17172 13.3332 8.00327 13.3332C7.81527 13.3332 7.64016 13.2736 7.4975 13.1609Z" fill="white"/>
<path d="M8.50283 2.8388C8.52861 2.86517 8.63883 2.96473 8.7295 3.05748C9.29972 3.6012 10.2331 5.01961 10.5179 5.76201C10.5637 5.87475 10.6606 6.1598 10.6668 6.3121C10.6668 6.45803 10.6348 6.59714 10.5699 6.72989C10.4793 6.89537 10.3366 7.02812 10.1682 7.10086C10.0513 7.14769 9.7015 7.22043 9.69527 7.22043C9.31261 7.29316 8.69083 7.33317 8.00372 7.33317C7.34905 7.33317 6.75261 7.29316 6.36416 7.23361C6.35794 7.22679 5.92327 7.15405 5.77438 7.07449C5.50238 6.92856 5.3335 6.64351 5.3335 6.33846V6.3121C5.34016 6.11343 5.50905 5.69563 5.51527 5.69563C5.80061 4.99325 6.68816 3.60757 7.27794 3.05066C7.27794 3.05066 7.4295 2.89381 7.52416 2.82562C7.66016 2.71924 7.82861 2.6665 7.99705 2.6665C8.18505 2.6665 8.36016 2.72606 8.50283 2.8388Z" fill="white"/>
</svg>
