<svg width="19" height="20" viewBox="0 0 19 20" fill="none" xmlns="http://www.w3.org/2000/svg">
<path fill-rule="evenodd" clip-rule="evenodd" d="M1.27232 14.4538C1.39228 14.2876 1.66783 14.0196 1.66783 14.0196C2.64296 12.9792 5.06832 11.4121 6.29882 10.9089C6.29882 10.8984 7.03047 10.5999 7.37847 10.5882H7.4248C7.95809 10.5882 8.45694 10.8867 8.7123 11.3665C8.81759 11.5643 8.9155 12.0454 8.96273 12.2776C8.97838 12.3544 8.98847 12.404 8.99142 12.4069C9.09594 13.0927 9.16483 14.1449 9.16483 15.3C9.16483 16.5124 9.09594 17.6102 8.96767 18.2855C8.96767 18.2972 8.84058 18.9139 8.75863 19.1199C8.63154 19.4172 8.39874 19.6688 8.10893 19.8291C7.87732 19.9438 7.63265 20 7.37847 20C7.11123 19.9895 6.61238 19.8174 6.41522 19.7378C5.11465 19.2346 2.63109 17.588 1.67971 16.5815C1.5736 16.4769 1.46245 16.3579 1.3851 16.2752C1.34383 16.231 1.31219 16.1971 1.29607 16.1812C1.09891 15.9296 0.994385 15.6206 0.994385 15.2883C0.994385 14.9922 1.08703 14.6949 1.27232 14.4538ZM8.15561 3.77166C8.67941 3.77166 9.10344 4.18946 9.10344 4.70558C9.10344 5.22169 8.67941 5.6395 8.15561 5.6395L3.57678 5.89697C2.90926 5.89697 2.36883 5.3633 2.36883 4.70558C2.36883 4.04785 2.90926 3.51535 3.57678 3.51535L8.15561 3.77166ZM11.2304 0.88036C11.3587 0.583096 11.5903 0.331476 11.8801 0.171143C12.1117 0.0564499 12.3564 0.000274658 12.6118 0.000274658C12.8778 0.010807 13.3779 0.182846 13.575 0.263597C14.8745 0.765667 17.3581 2.41349 18.3107 3.4188C18.4141 3.52149 18.5229 3.63811 18.6 3.72068L18.6001 3.72085L18.6003 3.72097L18.6003 3.72105C18.6434 3.76721 18.6765 3.80268 18.6931 3.81905C18.8903 4.07184 18.9948 4.37963 18.9948 4.71084C18.9948 5.00927 18.9022 5.30653 18.7157 5.54645C18.5969 5.71264 18.3213 5.98064 18.3213 5.98064C17.3474 7.02223 14.9208 8.58813 13.6903 9.09137C13.6903 9.10307 12.9598 9.40034 12.6118 9.41204H12.5654C12.031 9.41204 11.5321 9.11478 11.2767 8.63377C11.1725 8.43636 11.0744 7.95676 11.0267 7.72411L11.0267 7.72408C11.0108 7.64642 11.0006 7.59628 10.9976 7.59335C10.8931 6.90754 10.8242 5.85542 10.8242 4.7003C10.8242 3.48785 10.8931 2.39008 11.0214 1.7148C11.0214 1.70427 11.1484 1.08634 11.2304 0.88036ZM10.8872 15.2941C10.8872 15.8102 11.3113 16.228 11.8351 16.228L16.4138 16.4855C17.0813 16.4855 17.6217 15.9518 17.6217 15.2941C17.6217 14.6364 17.0813 14.1039 16.4138 14.1039L11.8351 14.3602C11.3113 14.3602 10.8872 14.778 10.8872 15.2941Z" fill="#CACACA" fill-opacity="0.68"/>
</svg>
