<svg width="20" height="17" viewBox="0 0 20 17" fill="none" xmlns="http://www.w3.org/2000/svg">
<path d="M20 1.96396C19.2641 2.29705 18.4733 2.52217 17.6433 2.62345C18.4905 2.1051 19.1411 1.28429 19.4474 0.3063C18.642 0.794167 17.7608 1.1379 16.8419 1.32265C16.0934 0.508692 15.027 0 13.8468 0C11.5807 0 9.74344 1.87528 9.74344 4.1882C9.74344 4.51651 9.77977 4.83612 9.84969 5.14274C6.43953 4.96802 3.41609 3.30064 1.39227 0.766667C1.03914 1.38525 0.836797 2.10478 0.836797 2.87225C0.836797 4.32536 1.56125 5.60726 2.66219 6.35837C2.01059 6.33754 1.37332 6.1579 0.803594 5.83445C0.803359 5.85199 0.803359 5.86954 0.803359 5.88716C0.803359 7.91643 2.21773 9.60925 4.09477 9.99402C3.49054 10.1618 2.85674 10.1863 2.2418 10.0658C2.76391 11.7297 4.2793 12.9406 6.07477 12.9745C4.67047 14.0978 2.90117 14.7674 0.978828 14.7674C0.647578 14.7674 0.321016 14.7475 0 14.7089C1.81586 15.8972 3.97266 16.5906 6.28984 16.5906C13.8373 16.5906 17.9644 10.2085 17.9644 4.67392C17.9644 4.49227 17.9605 4.31164 17.9525 4.13206C18.7558 3.5393 19.4492 2.80512 20 1.96396Z" fill="#909090"/>
</svg>
